<mxfile host="app.diagrams.net" agent="Mozilla/5.0 (Windows NT 10.0; Win64; x64) AppleWebKit/537.36 (KHTML, like Gecko) Chrome/133.0.0.0 Safari/537.36" version="26.0.16">
  <diagram name="第 1 页" id="fQB9fal9nah5qrefnm-s">
    <mxGraphModel dx="977" dy="489" grid="1" gridSize="10" guides="1" tooltips="1" connect="1" arrows="1" fold="1" page="1" pageScale="1" pageWidth="827" pageHeight="1169" math="0" shadow="0">
      <root>
        <mxCell id="0" />
        <mxCell id="1" parent="0" />
        <mxCell id="wNhZcJhVLj2rORX2yZU1-18" value="" style="rounded=0;whiteSpace=wrap;html=1;" parent="1" vertex="1">
          <mxGeometry x="510" y="130" width="70" height="40" as="geometry" />
        </mxCell>
        <mxCell id="wNhZcJhVLj2rORX2yZU1-14" value="" style="rounded=0;whiteSpace=wrap;html=1;" parent="1" vertex="1">
          <mxGeometry x="160" y="110" width="120" height="200" as="geometry" />
        </mxCell>
        <mxCell id="wNhZcJhVLj2rORX2yZU1-2" value="通道适配器" style="text;html=1;align=center;verticalAlign=middle;whiteSpace=wrap;rounded=0;" parent="1" vertex="1">
          <mxGeometry x="180" y="276" width="80" height="30" as="geometry" />
        </mxCell>
        <mxCell id="wNhZcJhVLj2rORX2yZU1-3" value="" style="rounded=0;whiteSpace=wrap;html=1;" parent="1" vertex="1">
          <mxGeometry x="270" y="135" width="20" height="30" as="geometry" />
        </mxCell>
        <mxCell id="wNhZcJhVLj2rORX2yZU1-4" value="Port1" style="text;html=1;align=center;verticalAlign=middle;resizable=0;points=[];autosize=1;strokeColor=none;fillColor=none;" parent="1" vertex="1">
          <mxGeometry x="290" y="135" width="50" height="30" as="geometry" />
        </mxCell>
        <mxCell id="wNhZcJhVLj2rORX2yZU1-5" value="" style="rounded=0;whiteSpace=wrap;html=1;" parent="1" vertex="1">
          <mxGeometry x="270" y="233" width="20" height="30" as="geometry" />
        </mxCell>
        <mxCell id="wNhZcJhVLj2rORX2yZU1-6" value="Port2" style="text;html=1;align=center;verticalAlign=middle;resizable=0;points=[];autosize=1;strokeColor=none;fillColor=none;" parent="1" vertex="1">
          <mxGeometry x="290" y="230" width="50" height="30" as="geometry" />
        </mxCell>
        <mxCell id="wNhZcJhVLj2rORX2yZU1-7" value="" style="rounded=0;whiteSpace=wrap;html=1;" parent="1" vertex="1">
          <mxGeometry x="480" y="115" width="130" height="70" as="geometry" />
        </mxCell>
        <mxCell id="wNhZcJhVLj2rORX2yZU1-8" value="" style="rounded=0;whiteSpace=wrap;html=1;" parent="1" vertex="1">
          <mxGeometry x="180" y="130" width="70" height="40" as="geometry" />
        </mxCell>
        <mxCell id="wNhZcJhVLj2rORX2yZU1-9" value="SQ" style="rounded=1;whiteSpace=wrap;html=1;" parent="1" vertex="1">
          <mxGeometry x="180" y="130" width="70" height="20" as="geometry" />
        </mxCell>
        <mxCell id="wNhZcJhVLj2rORX2yZU1-10" value="RQ" style="rounded=1;whiteSpace=wrap;html=1;" parent="1" vertex="1">
          <mxGeometry x="180" y="150" width="70" height="20" as="geometry" />
        </mxCell>
        <mxCell id="wNhZcJhVLj2rORX2yZU1-11" value="" style="rounded=0;whiteSpace=wrap;html=1;" parent="1" vertex="1">
          <mxGeometry x="180" y="227" width="70" height="40" as="geometry" />
        </mxCell>
        <mxCell id="wNhZcJhVLj2rORX2yZU1-12" value="SQ" style="rounded=1;whiteSpace=wrap;html=1;" parent="1" vertex="1">
          <mxGeometry x="180" y="227" width="70" height="20" as="geometry" />
        </mxCell>
        <mxCell id="wNhZcJhVLj2rORX2yZU1-13" value="RQ" style="rounded=1;whiteSpace=wrap;html=1;" parent="1" vertex="1">
          <mxGeometry x="180" y="247" width="70" height="20" as="geometry" />
        </mxCell>
        <mxCell id="wNhZcJhVLj2rORX2yZU1-16" value="SQ" style="rounded=1;whiteSpace=wrap;html=1;" parent="1" vertex="1">
          <mxGeometry x="510" y="130" width="70" height="20" as="geometry" />
        </mxCell>
        <mxCell id="wNhZcJhVLj2rORX2yZU1-17" value="RQ" style="rounded=1;whiteSpace=wrap;html=1;" parent="1" vertex="1">
          <mxGeometry x="510" y="150" width="70" height="20" as="geometry" />
        </mxCell>
        <mxCell id="wNhZcJhVLj2rORX2yZU1-19" value="" style="rounded=0;whiteSpace=wrap;html=1;" parent="1" vertex="1">
          <mxGeometry x="470" y="135" width="20" height="30" as="geometry" />
        </mxCell>
        <mxCell id="wNhZcJhVLj2rORX2yZU1-20" value="" style="rounded=0;whiteSpace=wrap;html=1;" parent="1" vertex="1">
          <mxGeometry x="510" y="227" width="70" height="40" as="geometry" />
        </mxCell>
        <mxCell id="wNhZcJhVLj2rORX2yZU1-21" value="" style="rounded=0;whiteSpace=wrap;html=1;" parent="1" vertex="1">
          <mxGeometry x="480" y="212" width="130" height="70" as="geometry" />
        </mxCell>
        <mxCell id="wNhZcJhVLj2rORX2yZU1-22" value="SQ" style="rounded=1;whiteSpace=wrap;html=1;" parent="1" vertex="1">
          <mxGeometry x="510" y="227" width="70" height="20" as="geometry" />
        </mxCell>
        <mxCell id="wNhZcJhVLj2rORX2yZU1-23" value="RQ" style="rounded=1;whiteSpace=wrap;html=1;" parent="1" vertex="1">
          <mxGeometry x="510" y="247" width="70" height="20" as="geometry" />
        </mxCell>
        <mxCell id="wNhZcJhVLj2rORX2yZU1-24" value="" style="rounded=0;whiteSpace=wrap;html=1;" parent="1" vertex="1">
          <mxGeometry x="470" y="237" width="20" height="30" as="geometry" />
        </mxCell>
        <mxCell id="wNhZcJhVLj2rORX2yZU1-26" value="" style="endArrow=classic;html=1;rounded=0;exitX=1;exitY=0.5;exitDx=0;exitDy=0;entryX=0;entryY=0.5;entryDx=0;entryDy=0;edgeStyle=orthogonalEdgeStyle;curved=1;flowAnimation=0;noJump=1;jumpStyle=none;shadow=0;fillColor=#f8cecc;strokeColor=#b85450;" parent="1" source="wNhZcJhVLj2rORX2yZU1-9" target="wNhZcJhVLj2rORX2yZU1-17" edge="1">
          <mxGeometry width="50" height="50" relative="1" as="geometry">
            <mxPoint x="360" y="210" as="sourcePoint" />
            <mxPoint x="410" y="160" as="targetPoint" />
          </mxGeometry>
        </mxCell>
        <mxCell id="wNhZcJhVLj2rORX2yZU1-27" value="Port" style="text;html=1;align=center;verticalAlign=middle;resizable=0;points=[];autosize=1;strokeColor=none;fillColor=none;" parent="1" vertex="1">
          <mxGeometry x="423" y="131" width="50" height="30" as="geometry" />
        </mxCell>
        <mxCell id="wNhZcJhVLj2rORX2yZU1-28" value="" style="endArrow=classic;html=1;rounded=1;exitX=0;exitY=0.5;exitDx=0;exitDy=0;entryX=1;entryY=0.5;entryDx=0;entryDy=0;edgeStyle=orthogonalEdgeStyle;curved=1;flowAnimation=0;shadow=0;noJump=0;orthogonalLoop=0;enumerate=0;orthogonal=0;snapToPoint=0;jumpStyle=none;fillColor=#f5f5f5;strokeColor=#666666;" parent="1" source="wNhZcJhVLj2rORX2yZU1-16" target="wNhZcJhVLj2rORX2yZU1-10" edge="1">
          <mxGeometry width="50" height="50" relative="1" as="geometry">
            <mxPoint x="350" y="260" as="sourcePoint" />
            <mxPoint x="400" y="210" as="targetPoint" />
          </mxGeometry>
        </mxCell>
        <mxCell id="wNhZcJhVLj2rORX2yZU1-29" value="" style="endArrow=classic;html=1;rounded=0;exitX=1;exitY=0.5;exitDx=0;exitDy=0;entryX=0;entryY=0.5;entryDx=0;entryDy=0;dashed=1;" parent="1" source="wNhZcJhVLj2rORX2yZU1-12" target="wNhZcJhVLj2rORX2yZU1-23" edge="1">
          <mxGeometry width="50" height="50" relative="1" as="geometry">
            <mxPoint x="330" y="320" as="sourcePoint" />
            <mxPoint x="380" y="270" as="targetPoint" />
          </mxGeometry>
        </mxCell>
        <mxCell id="wNhZcJhVLj2rORX2yZU1-30" value="数据报" style="text;html=1;align=center;verticalAlign=middle;resizable=0;points=[];autosize=1;strokeColor=none;fillColor=none;" parent="1" vertex="1">
          <mxGeometry x="345" y="220" width="60" height="30" as="geometry" />
        </mxCell>
        <mxCell id="wNhZcJhVLj2rORX2yZU1-31" value="连接" style="text;html=1;align=center;verticalAlign=middle;resizable=0;points=[];autosize=1;strokeColor=none;fillColor=none;" parent="1" vertex="1">
          <mxGeometry x="350" y="115" width="50" height="30" as="geometry" />
        </mxCell>
      </root>
    </mxGraphModel>
  </diagram>
</mxfile>
